{
	"asset":{
		"generator":"Khronos glTF Blender I/O v3.6.6",
		"version":"2.0"
	},
	"scene":0,
	"scenes":[
		{
			"name":"Scene",
			"nodes":[
				0,
				1
			]
		}
	],
	"nodes":[
		{
			"mesh":0,
			"name":"Cube"
		},
		{
			"mesh":1,
			"name":"Icosphere",
			"translation":[
				0,
				2.0709540843963623,
				0
			]
		}
	],
	"meshes":[
		{
			"name":"Cube.001",
			"primitives":[
				{
					"attributes":{
						"COLOR_0":0,
						"POSITION":1,
						"TEXCOORD_0":2,
						"NORMAL":3
					},
					"indices":4
				}
			]
		},
		{
			"name":"Icosphere",
			"primitives":[
				{
					"attributes":{
						"COLOR_0":5,
						"POSITION":6,
						"TEXCOORD_0":7,
						"NORMAL":8
					},
					"indices":9
				}
			]
		}
	],
	"accessors":[
		{
			"bufferView":0,
			"componentType":5126,
			"count":24,
			"type":"VEC4"
		},
		{
			"bufferView":1,
			"componentType":5126,
			"count":24,
			"max":[
				1,
				1,
				1
			],
			"min":[
				-1,
				-1,
				-1
			],
			"type":"VEC3"
		},
		{
			"bufferView":2,
			"componentType":5126,
			"count":24,
			"type":"VEC2"
		},
		{
			"bufferView":3,
			"componentType":5126,
			"count":24,
			"type":"VEC3"
		},
		{
			"bufferView":4,
			"componentType":5123,
			"count":36,
			"type":"SCALAR"
		},
		{
			"bufferView":5,
			"componentType":5126,
			"count":240,
			"type":"VEC4"
		},
		{
			"bufferView":6,
			"componentType":5126,
			"count":240,
			"max":[
				0.9510578513145447,
				1,
				0.9999999403953552
			],
			"min":[
				-0.9510578513145447,
				-1,
				-0.9999999403953552
			],
			"type":"VEC3"
		},
		{
			"bufferView":7,
			"componentType":5126,
			"count":240,
			"type":"VEC2"
		},
		{
			"bufferView":8,
			"componentType":5126,
			"count":240,
			"type":"VEC3"
		},
		{
			"bufferView":9,
			"componentType":5123,
			"count":240,
			"type":"SCALAR"
		}
	],
	"bufferViews":[
		{
			"buffer":0,
			"byteLength":384,
			"byteOffset":0,
			"target":34962
		},
		{
			"buffer":0,
			"byteLength":288,
			"byteOffset":384,
			"target":34962
		},
		{
			"buffer":0,
			"byteLength":192,
			"byteOffset":672,
			"target":34962
		},
		{
			"buffer":0,
			"byteLength":288,
			"byteOffset":864,
			"target":34962
		},
		{
			"buffer":0,
			"byteLength":72,
			"byteOffset":1152,
			"target":34963
		},
		{
			"buffer":0,
			"byteLength":3840,
			"byteOffset":1224,
			"target":34962
		},
		{
			"buffer":0,
			"byteLength":2880,
			"byteOffset":5064,
			"target":34962
		},
		{
			"buffer":0,
			"byteLength":1920,
			"byteOffset":7944,
			"target":34962
		},
		{
			"buffer":0,
			"byteLength":2880,
			"byteOffset":9864,
			"target":34962
		},
		{
			"buffer":0,
			"byteLength":480,
			"byteOffset":12744,
			"target":34963
		}
	],
	"buffers":[
		{
			"byteLength":13224,
			"uri":"isocube.bin"
		}
	]
}
